:FULLY-SPECIFIED
:FORCE-ALL-JOINTS-BE-3DOF
:DEGREES
544
root 8.21345 13.9752 -3.53753 179.577 47.2673 177.232
lfemur -33.7398 -5.75346 -16.1396
ltibia 88.7977 -0 0
lfoot -38.7989 -10.4863 0.0514261
ltoes -5.66044 0 0
rfemur -49.0063 -7.76718 -3.27137
rtibia 64.0656 -0 0
rfoot -9.80567 1.50958 0.0947118
rtoes -39.4562 0 0
lowerback 13.1656 0.958674 1.73258
upperback 6.97018 2.45279 7.07988
thorax -0.285605 1.51828 6.1448
lowerneck -2.21671 -15.8809 -5.99446
upperneck 8.95853 -21.5615 8.62959
head 4.64376 -10.4201 2.26098
lclavicle 7.15625e-14 -9.70069e-14 0
lhumerus -45.4777 -12.5845 104.21
lradius 56.441 -0 0
lwrist 30.8732 0 0
lhand -24.5317 -2.90352 -0.013567
lfingers 7.12502 -0 0
lthumb 1.96383 27.0629 -0.0134231
rclavicle 7.15625e-14 -9.70069e-14 0
rhumerus 5.46222 18.4968 -89.8632
rradius 135.305 -0 0
rwrist -45.9562 0 0
rhand -29.9293 -23.7633 0.00044506
rfingers 7.12502 -0 0
rthumb -3.24916 -53.7164 0.000383864
545
root 8.2831 13.903 -3.49513 -180.648 46.7585 -182.911
lfemur -33.9582 -5.75614 -15.7497
ltibia 89.6009 0 0
lfoot -39.2334 -11.3853 0
ltoes -5.48296 0 0
rfemur -49.1752 -8.3794 -3.08424
rtibia 65.2839 0 0
rfoot -11.0681 0.94276 0
rtoes -39.2691 0 0
lowerback 13.2093 0.947444 1.72355
upperback 7.08019 2.44684 7.07191
thorax -0.192668 1.51966 6.14401
lowerneck -2.01192 -15.8516 -5.93689
upperneck 8.65585 -21.53 8.82835
head 4.53042 -10.41 2.34267
lclavicle 1.35174e-14 -7.31528e-14 0
lhumerus -45.6705 -11.7212 103.63
lradius 56.1593 0 0
lwrist 31.5932 0 0
lhand -24.8892 -2.61399 0
lfingers 7.12502 0 0
lthumb 1.6186 27.3596 0
rclavicle 1.35174e-14 -7.31528e-14 0
rhumerus 4.75935 19.0061 -90.6183
rradius 135.142 0 0
rwrist -45.6418 0 0
rhand -30.1378 -23.7796 0
rfingers 7.12502 0 0
rthumb -3.45053 -773.731 0
546
root 8.2678 13.984 -3.49105 179.535 47.2705 177.144
lfemur -33.4885 -5.28751 -15.7741
ltibia 88.3993 -0 0
lfoot -39.1688 -11.2306 0.00130919
ltoes -5.56779 0 0
rfemur -48.938 -7.91417 -2.90362
rtibia 64.0401 -0 0
rfoot -10.2101 1.1203 0.0200278
rtoes -39.1068 0 0
lowerback 13.0059 0.841696 1.57364
upperback 6.91646 2.2544 6.92896
thorax -0.232751 1.40978 6.10205
lowerneck -2.03765 -15.7828 -5.86227
upperneck 8.64972 -21.4325 8.69625
head 4.50397 -10.3666 2.30443
lclavicle 1.35174e-14 -7.31528e-14 0
lhumerus -45.6722 -11.5014 103.448
lradius 55.9589 -0 0
lwrist 31.323 0 0
lhand -24.9464 -2.79268 0.00133738
lfingers 7.12502 -0 0
lthumb 1.56339 27.1812 0.00128945
rclavicle 1.35174e-14 -7.31528e-14 0
rhumerus 5.69846 18.9827 -89.908
rradius 135.107 -0 0
rwrist -45.5548 0 0
rhand -29.9803 -23.6469 0.00273693
rfingers 7.12502 -0 0
rthumb -3.29844 -53.5999 0.00261079
547
root 8.2525 14.0651 -3.48696 179.72 47.7823 177.201
lfemur -33.0194 -4.81869 -15.7946
ltibia 87.1977 -0 0
lfoot -39.1041 -11.0758 0.00244384
ltoes -5.65262 0 0
rfemur -48.6996 -7.44969 -2.72126
rtibia 62.7963 -0 0
rfoot -9.35202 1.29812 0.0373947
rtoes -38.9446 0 0
lowerback 12.8028 0.735416 1.42412
upperback 6.75323 2.06156 6.78658
thorax -0.272752 1.29987 6.06017
lowerneck -2.06327 -15.7139 -5.78771
upperneck 8.64336 -21.3349 8.56423
head 4.47749 -10.3232 2.26618
lclavicle 1.35174e-14 -7.31528e-14 0
lhumerus -45.6746 -11.2816 103.266
lradius 55.7585 -0 0
lwrist 31.0528 0 0
lhand -25.0035 -2.97137 0.00249648
lfingers 7.12502 -0 0
lthumb 1.50817 27.0028 0.00240701
rclavicle 1.35174e-14 -7.31528e-14 0
rhumerus 6.63702 18.9482 -89.1984
rradius 135.072 -0 0
rwrist -45.4679 0 0
rhand -29.8228 -23.5141 0.00510901
rfingers 7.12502 -0 0
rthumb -3.14634 -53.4688 0.00487355
548
root 8.23721 14.1461 -3.48288 179.908 48.294 177.262
lfemur -32.5508 -4.34972 -15.8113
ltibia 85.9962 -0 0
lfoot -39.0395 -10.9211 0.00340395
ltoes -5.73746 0 0
rfemur -48.46 -6.98597 -2.53714
rtibia 61.5524 -0 0
rfoot -8.4939 1.47617 0.0520967
rtoes -38.7823 0 0
lowerback 12.5999 0.628608 1.27497
upperback 6.59051 1.86831 6.64477
thorax -0.31267 1.18993 6.01837
lowerneck -2.08879 -15.645 -5.71321
upperneck 8.63676 -21.2374 8.43228
head 4.45098 -10.2798 2.22792
lclavicle 1.35174e-14 -7.31528e-14 0
lhumerus -45.6777 -11.0617 103.084
lradius 55.5581 -0 0
lwrist 30.7826 0 0
lhand -25.0607 -3.15006 0.00347727
lfingers 7.12502 -0 0
lthumb 1.45296 26.8244 0.00335265
rclavicle 1.35174e-14 -7.31528e-14 0
rhumerus 7.57484 18.9028 -88.4896
rradius 135.037 -0 0
rwrist -45.3809 0 0
rhand -29.6653 -23.3814 0.00711621
rfingers 7.12502 -0 0
rthumb -2.99424 -53.3377 0.00678823
549
root 8.22191 14.2271 -3.47879 -179.901 48.8056 177.326
lfemur -32.0825 -3.88063 -15.8241
ltibia 84.7946 -0 0
lfoot -38.9749 -10.7664 0.0041895
ltoes -5.82229 0 0
rfemur -48.2191 -6.52301 -2.35125
rtibia 60.3086 -0 0
rfoot -7.63573 1.65443 0.0641303
rtoes -38.62 0 0
lowerback 12.3973 0.521272 1.12621
upperback 6.42827 1.67466 6.50352
thorax -0.352507 1.07996 5.97664
lowerneck -2.11421 -15.5761 -5.63877
upperneck 8.62992 -21.1399 8.3004
head 4.42445 -10.2365 2.18964
lclavicle 1.35174e-14 -7.31528e-14 0
lhumerus -45.6815 -10.842 102.903
lradius 55.3577 -0 0
lwrist 30.5124 0 0
lhand -25.1179 -3.32875 0.00427975
lfingers 7.12502 -0 0
lthumb 1.39774 26.6461 0.00412637
rclavicle 1.35174e-14 -7.31528e-14 0
rhumerus 8.51171 18.8464 -87.7819
rradius 135.002 -0 0
rwrist -45.2939 0 0
rhand -29.5079 -23.2486 0.00875849
rfingers 7.12502 -0 0
rthumb -2.84214 -53.2065 0.00835482
550
root 8.20661 14.3081 -3.47471 -179.707 49.317 177.393
lfemur -31.6147 -3.41146 -15.833
ltibia 83.593 -0 0
lfoot -38.9102 -10.6117 0.0048005
ltoes -5.90712 0 0
rfemur -47.9769 -6.06084 -2.16357
rtibia 59.0648 -0 0
rfoot -6.77754 1.83285 0.0734927
rtoes -38.4577 0 0
lowerback 12.1951 0.413412 0.977826
upperback 6.26653 1.48061 6.36284
thorax -0.392262 0.969961 5.93499
lowerneck -2.13953 -15.5071 -5.56438
upperneck 8.62284 -21.0425 8.1686
head 4.39789 -10.1931 2.15134
lclavicle 1.35174e-14 -7.31528e-14 0
lhumerus -45.6861 -10.6222 102.721
lradius 55.1574 -0 0
lwrist 30.2422 0 0
lhand -25.1751 -3.50744 0.00490391
lfingers 7.12502 -0 0
lthumb 1.34251 26.4677 0.00472816
rclavicle 1.35174e-14 -7.31528e-14 0
rhumerus 9.44742 18.7791 -87.0756
rradius 134.967 -0 0
rwrist -45.207 0 0
rhand -29.3504 -23.1158 0.0100358
rfingers 7.12502 -0 0
rthumb -2.69003 -53.0754 0.0095733
551
root 8.19131 14.3892 -3.47062 -179.51 49.8283 177.463
lfemur -31.1471 -2.94222 -15.8382
ltibia 82.3914 -0 0
lfoot -38.8456 -10.4569 0.00523692
ltoes -5.99195 0 0
rfemur -47.7334 -5.59946 -1.97408
rtibia 57.821 -0 0
rfoot -5.91932 2.01139 0.0801817
rtoes -38.2955 0 0
lowerback 11.9931 0.305029 0.829829
upperback 6.10529 1.28617 6.22271
thorax -0.431936 0.859934 5.89343
lowerneck -2.16475 -15.4381 -5.49004
upperneck 8.61554 -20.945 8.03688
head 4.37131 -10.1498 2.11303
lclavicle 1.35174e-14 -7.31528e-14 0
lhumerus -45.6913 -10.4024 102.54
lradius 54.957 -0 0
lwrist 29.972 0 0
lhand -25.2322 -3.68614 0.00534974
lfingers 7.12502 -0 0
lthumb 1.28729 26.2893 0.00515802
rclavicle 1.35174e-14 -7.31528e-14 0
rhumerus 10.3818 18.7009 -86.3708
rradius 134.932 -0 0
rwrist -45.12 0 0
rhand -29.1929 -22.9831 0.0109483
rfingers 7.12502 -0 0
rthumb -2.53792 -52.9443 0.0104437
552
root 8.17602 14.4702 -3.46654 -179.311 50.3394 177.537
lfemur -30.6797 -2.47296 -15.8394
ltibia 81.1898 -0 0
lfoot -38.7809 -10.3022 0.00549878
ltoes -6.07678 0 0
rfemur -47.4885 -5.13889 -1.78276
rtibia 56.5771 -0 0
rfoot -5.06108 2.19001 0.0841957
rtoes -38.1332 0 0
lowerback 11.7913 0.196125 0.682215
upperback 5.94452 1.09133 6.08315
thorax -0.47153 0.749879 5.85193
lowerneck -2.18987 -15.3691 -5.41577
upperneck 8.60799 -20.8475 7.90522
head 4.3447 -10.1065 2.0747
lclavicle 1.35174e-14 -7.31528e-14 0
lhumerus -45.6972 -10.1826 102.359
lradius 54.7566 -0 0
lwrist 29.7018 0 0
lhand -25.2894 -3.86483 0.00561724
lfingers 7.12502 -0 0
lthumb 1.23207 26.1109 0.00541594
rclavicle 1.35174e-14 -7.31528e-14 0
rhumerus 11.3146 18.6118 -85.6678
rradius 134.897 -0 0
rwrist -45.033 0 0
rhand -29.0354 -22.8503 0.0114957
rfingers 7.12502 -0 0
rthumb -2.38581 -52.8131 0.0109659
553
root 8.16072 14.5512 -3.46245 -179.108 50.8504 177.615
lfemur -30.2125 -2.00371 -15.8369
ltibia 79.9882 -0 0
lfoot -38.7163 -10.1475 0.00558607
ltoes -6.16162 0 0
rfemur -47.2423 -4.67915 -1.58961
rtibia 55.3333 -0 0
rfoot -4.20283 2.36866 0.0855338
rtoes -37.9709 0 0
lowerback 11.5899 0.0867028 0.534987
upperback 5.78425 0.896103 5.94413
thorax -0.511042 0.639795 5.81052
lowerneck -2.21488 -15.3 -5.34155
upperneck 8.60021 -20.7501 7.77364
head 4.31806 -10.0632 2.03636
lclavicle 1.35174e-14 -7.31528e-14 0
lhumerus -45.7039 -9.96291 102.177
lradius 54.5562 -0 0
lwrist 29.4316 0 0
lhand -25.3466 -4.04352 0.00570641
lfingers 7.12502 -0 0
lthumb 1.17684 25.9325 0.00550191
rclavicle 1.35174e-14 -7.31528e-14 0
rhumerus 12.2457 18.5119 -84.9668
rradius 134.861 -0 0
rwrist -44.9461 0 0
rhand -28.8778 -22.7175 0.0116782
rfingers 7.12502 -0 0
rthumb -2.2337 -52.682 0.0111399
554
root 8.14542 14.6322 -3.45837 -178.902 51.3611 177.696
lfemur -29.7454 -1.53449 -15.8305
ltibia 78.7867 -0 0
lfoot -38.6517 -9.99273 0.00549878
ltoes -6.24645 0 0
rfemur -46.9947 -4.22023 -1.39459
rtibia 54.0895 -0 0
rfoot -3.34459 2.54732 0.0841957
rtoes -37.8086 0 0
lowerback 11.3887 -0.0232362 0.388145
upperback 5.62445 0.700488 5.80567
thorax -0.550474 0.529682 5.76918
lowerneck -2.2398 -15.231 -5.26738
upperneck 8.5922 -20.6527 7.64213
head 4.2914 -10.02 1.998
lclavicle 1.35174e-14 -7.31528e-14 0
lhumerus -45.7112 -9.7432 101.996
lradius 54.3558 -0 0
lwrist 29.1614 0 0
lhand -25.4038 -4.22222 0.00561724
lfingers 7.12502 -0 0
lthumb 1.12161 25.7541 0.00541594
rclavicle 1.35174e-14 -7.31528e-14 0
rhumerus 13.1748 18.4012 -84.268
rradius 134.826 -0 0
rwrist -44.8591 0 0
rhand -28.7203 -22.5848 0.0114957
rfingers 7.12502 -0 0
rthumb -2.08158 -52.5509 0.0109659
555
root 8.13012 14.7133 -3.45429 -178.692 51.8717 177.782
lfemur -29.2783 -1.06534 -15.8203
ltibia 77.5851 -0 0
lfoot -38.587 -9.838 0.00523692
ltoes -6.33128 0 0
rfemur -46.7456 -3.76216 -1.1977
rtibia 52.8457 -0 0
rfoot -2.48635 2.72594 0.0801817
rtoes -37.6463 0 0
lowerback 11.1879 -0.13369 0.241689
upperback 5.46514 0.504489 5.66777
thorax -0.589827 0.419541 5.72792
lowerneck -2.26461 -15.1618 -5.19327
upperneck 8.58395 -20.5553 7.51069
head 4.26471 -9.97674 1.95963
lclavicle 1.35174e-14 -7.31528e-14 0
lhumerus -45.7193 -9.52351 101.815
lradius 54.1554 -0 0
lwrist 28.8912 0 0
lhand -25.461 -4.40091 0.00534974
lfingers 7.12502 -0 0
lthumb 1.06639 25.5757 0.00515802
rclavicle 1.35174e-14 -7.31528e-14 0
rhumerus 14.1019 18.2798 -83.5717
rradius 134.791 -0 0
rwrist -44.7721 0 0
rhand -28.5628 -22.452 0.0109483
rfingers 7.12502 -0 0
rthumb -1.92947 -52.4197 0.0104437
